<svg width="16" height="19" viewBox="0 0 16 19" fill="none" xmlns="http://www.w3.org/2000/svg">
<path d="M6.344 3.244H0.312V0.488H15.782V3.244H9.724V19H6.344V3.244Z" fill="white"/>
<path d="M6.344 3.244H7.344V2.244H6.344V3.244ZM0.312 3.244H-0.688V4.244H0.312V3.244ZM0.312 0.488V-0.512H-0.688V0.488H0.312ZM15.782 0.488H16.782V-0.512H15.782V0.488ZM15.782 3.244V4.244H16.782V3.244H15.782ZM9.724 3.244V2.244H8.724V3.244H9.724ZM9.724 19V20H10.724V19H9.724ZM6.344 19H5.344V20H6.344V19ZM6.344 2.244H0.312V4.244H6.344V2.244ZM1.312 3.244V0.488H-0.688V3.244H1.312ZM0.312 1.488H15.782V-0.512H0.312V1.488ZM14.782 0.488V3.244H16.782V0.488H14.782ZM15.782 2.244H9.724V4.244H15.782V2.244ZM8.724 3.244V19H10.724V3.244H8.724ZM9.724 18H6.344V20H9.724V18ZM7.344 19V3.244H5.344V19H7.344Z" fill="black"/>
<path d="M6.344 3.244H7.344V2.244H6.344V3.244ZM0.312 3.244H-0.688V4.244H0.312V3.244ZM0.312 0.488V-0.512H-0.688V0.488H0.312ZM15.782 0.488H16.782V-0.512H15.782V0.488ZM15.782 3.244V4.244H16.782V3.244H15.782ZM9.724 3.244V2.244H8.724V3.244H9.724ZM9.724 19V20H10.724V19H9.724ZM6.344 19H5.344V20H6.344V19ZM6.344 2.244H0.312V4.244H6.344V2.244ZM1.312 3.244V0.488H-0.688V3.244H1.312ZM0.312 1.488H15.782V-0.512H0.312V1.488ZM14.782 0.488V3.244H16.782V0.488H14.782ZM15.782 2.244H9.724V4.244H15.782V2.244ZM8.724 3.244V19H10.724V3.244H8.724ZM9.724 18H6.344V20H9.724V18ZM7.344 19V3.244H5.344V19H7.344Z" fill="black" fill-opacity="0.2"/>
</svg>
